<?xml version="1.0" encoding="UTF-8"?>
<svg id="Warstwa_2" data-name="Warstwa 2" xmlns="http://www.w3.org/2000/svg" viewBox="0 0 790.85 170.83">
  <defs>
    <style>
      .cls-1, .cls-2, .cls-3, .cls-4 {
        fill: #0d0d0d;
        stroke: #0d0d0d;
        stroke-miterlimit: 10;
      }

      .cls-5 {
        fill: #eff2f5;
      }

      .cls-2 {
        stroke-width: 3.72px;
      }

      .cls-3 {
        stroke-width: 3.72px;
      }

      .cls-4 {
        stroke-width: 3.72px;
      }
    </style>
  </defs>
  <g id="Logo_białe" data-name="Logo białe">
    <rect class="cls-5" width="170.83" height="170.83" rx="57.85" ry="57.85"/>
    <g id="sygnet">
      <path class="cls-2" d="M92.28,70.12h-20.34c-2.4,0-4.34,1.94-4.34,4.34h0c0,2.4,1.94,4.34,4.34,4.34h20.34c15.65,0,28.34,12.69,28.34,28.34v13.37c0,8.26-6.7,14.96-14.96,14.96h-42.58s9.25-9.25,9.25-9.25h-11.05l-17.92,17.92h62.3c13.03,0,23.63-10.6,23.63-23.63v-13.38c0-20.44-16.57-37.01-37.01-37.01Z"/>
      <path class="cls-3" d="M52.02,74.43v-13.38c0-8.26,6.7-14.96,14.96-14.96h20.38l8.67-8.67h-29.06c-13.05,0-23.63,10.58-23.63,23.63v13.38c0,20.44,16.57,37.01,37.01,37.01h23.16c2.4,0,4.34-1.94,4.34-4.34h0c0-2.4-1.94-4.34-4.34-4.34h-23.16c-15.65,0-28.34-12.69-28.34-28.34Z"/>
      <path class="cls-4" d="M94.84,59.07h0c-1.69-1.69-1.69-4.44,0-6.13l18.79-18.79,6.13,6.13-18.79,18.79c-1.69,1.69-4.44,1.69-6.13,0Z"/>
      <path class="cls-1" d="M102.5,28.19l23.48,23.48c1.26,1.26,3.41.37,3.41-1.41v-25.48h-25.48c-1.78,0-2.67,2.15-1.41,3.41Z"/>
    </g>
    <g id="napis">
      <path class="cls-5" d="M286.29,105.76c0,22.59-17.08,31.91-40.8,31.91-15.95,0-31.34-5.22-41.65-12l13.27-21.46c7.2,4.94,19.77,9.88,28.94,9.88,9.74,0,12.85-1.69,12.85-6.35,0-3.67-3.53-5.93-16.8-9.04-23.86-5.51-35.3-12-35.3-31.77,0-18.64,15.11-31.2,38.97-31.2,16.8,0,30.07,4.09,40.52,11.44l-14.4,21.46c-8.75-5.93-17.51-9.32-27.53-9.32-8.19,0-10.17,2.54-10.17,6.07s3.53,5.37,16.24,8.33c24.85,5.93,35.86,13.55,35.86,32.05Z"/>
      <path class="cls-5" d="M357.17,120.02c-8.61,12.71-16.66,17.65-29.79,17.65-21.74,0-34.73-13.84-34.73-38.83,0-22.73,11.58-38.4,35.3-38.4,13.98,0,22.73,6.5,29.23,16.94l-18.21,13.27c-3.53-6.5-5.93-9.6-11.44-9.6-6.5,0-9.74,6.49-9.74,18.21s3.53,17.79,10.45,17.79c4.8,0,8.19-2.68,12.85-9.6l16.1,12.57Z"/>
      <path class="cls-5" d="M433.97,98.98c0,25.56-14.83,38.69-35.3,38.69s-35.16-13.13-35.16-38.69,14.68-38.55,35.16-38.55,35.3,12.71,35.3,38.55ZM408.69,98.98c0-12.57-3.39-17.93-10.02-17.93s-10.02,5.37-10.02,17.93,3.39,18.07,10.02,18.07,10.02-5.79,10.02-18.07Z"/>
      <path class="cls-5" d="M497.93,72.72c0,7.77-6.07,12.57-14.83,12.57s-14.54-4.8-14.54-12.57c0-7.2,6.21-12.28,14.54-12.28,8.75,0,14.83,5.08,14.83,12.28Z"/>
      <rect class="cls-5" x="440.31" y="60.44" width="25.41" height="77.23"/>
      <path class="cls-5" d="M567.32,101.38c0,2.12,0,3.67-.14,4.94h-43.49c.85,8.19,5.65,11.86,12.57,11.86,6.49,0,11.86-1.41,19.2-5.22l11.86,16.24c-9.18,5.37-20.75,8.47-32.33,8.47-22.31,0-34.59-15.81-34.59-38.55,0-25.56,14.4-38.69,33.89-38.69s33.04,13.41,33.04,40.95ZM544.87,90.51c-1.27-7.48-3.81-11.3-11.3-11.3-5.79,0-9.04,3.95-9.88,11.3h21.18Z"/>
      <path class="cls-5" d="M644.89,137.67h-71.44V43.43l27.67-10.25v79.07h43.77v25.41Z"/>
      <path class="cls-5" d="M717.09,137.67h-24v-6.49c-4.8,3.67-11.3,6.49-18.07,6.49-14.4,0-24-8.89-24-25.56s11.01-24.14,26.68-24.14c6.78,0,11.3,1.27,15.39,3.11v-3.67c0-6.5-3.53-8.75-10.45-8.75-7.62,0-13.41,1.41-20.61,5.37l-11.01-16.8c9.04-4.38,23.44-6.78,36.29-6.78,20.76,0,29.79,10.31,29.79,27.53v49.7ZM693.09,116.06v-10.17c-2.82-1.27-6.07-2.12-10.87-2.12-5.22,0-7.91,2.82-7.91,7.91,0,4.66,2.4,8.05,7.91,8.05,4.24,0,8.47-1.69,10.87-3.67Z"/>
      <path class="cls-5" d="M790.85,98.84c0,26.54-9.46,38.83-25.7,38.83-7.34,0-12.43-3.39-16.52-6.49v6.49h-25.42V43.35l25.42-10.17v34.03c5.08-3.95,9.74-6.78,17.51-6.78,13.98,0,24.71,10.87,24.71,38.4ZM765.72,99.69c0-14.82-2.68-18.36-8.05-18.36-3.67,0-6.35,1.41-9.04,3.53v28.38c2.68,2.12,5.22,3.53,9.18,3.53,5.22,0,7.91-3.25,7.91-17.08Z"/>
    </g>
  </g>
</svg>